<svg width="165.332" height="38.629" viewBox="0 0 165.332 38.629" xmlns="http://www.w3.org/2000/svg"><g id="svgGroup" stroke-linecap="round" fill-rule="evenodd" font-size="9pt" stroke="#000" stroke-width="0.25mm" fill="#000" style="stroke:#000;stroke-width:0.25mm;fill:#000"><path d="M 98.828 38.281 L 98.828 35.205 L 98.828 33.643 Q 98.047 35.205 96.485 36.45 A 5.391 5.391 0 0 1 94.521 37.422 Q 93.74 37.636 92.815 37.682 A 10.492 10.492 0 0 1 92.285 37.695 A 7.987 7.987 0 0 1 88.013 36.475 A 10.379 10.379 0 0 1 85.725 34.533 A 13.613 13.613 0 0 1 84.522 32.959 Q 83.019 30.681 82.166 27.417 A 26.007 26.007 0 0 1 82.153 27.368 A 25.857 25.857 0 0 1 81.487 23.625 A 34.897 34.897 0 0 1 81.299 19.922 A 27.007 27.007 0 0 1 81.783 14.727 A 23.216 23.216 0 0 1 82.422 12.207 A 24.773 24.773 0 0 1 83.905 8.514 A 19.844 19.844 0 0 1 85.401 6.006 Q 87.256 3.369 89.722 1.88 A 10.389 10.389 0 0 1 92.67 0.646 A 9.187 9.187 0 0 1 94.824 0.391 A 16.283 16.283 0 0 1 96.555 0.477 Q 97.423 0.57 98.157 0.763 A 7.576 7.576 0 0 1 99.219 1.123 A 7.708 7.708 0 0 1 100.66 1.922 A 5.969 5.969 0 0 1 101.904 3.101 A 6.802 6.802 0 0 1 103.153 5.698 A 7.964 7.964 0 0 1 103.223 6.006 Q 103.565 7.666 103.467 9.473 A 7.611 7.611 0 0 1 103.118 11.43 A 8.79 8.79 0 0 1 102.979 11.841 A 10.339 10.339 0 0 1 102.357 13.223 A 8.581 8.581 0 0 1 101.904 13.965 A 6.456 6.456 0 0 1 101.341 14.681 Q 101.015 15.037 100.667 15.29 A 3.786 3.786 0 0 1 100.537 15.381 A 2.058 2.058 0 0 1 100.183 15.573 Q 99.638 15.798 99.121 15.576 Q 98.584 15.43 97.949 15.235 A 20.725 20.725 0 0 1 97.009 14.893 Q 96.591 14.731 96.13 14.536 A 41.815 41.815 0 0 1 95.166 14.111 Q 96.143 13.428 96.973 12.549 A 7.876 7.876 0 0 0 97.684 11.592 A 10.51 10.51 0 0 0 98.218 10.645 A 5.27 5.27 0 0 0 98.713 9.023 A 6.814 6.814 0 0 0 98.779 8.057 Q 98.779 6.982 98.552 6.169 A 4.621 4.621 0 0 0 98.462 5.884 A 5.179 5.179 0 0 0 98.147 5.159 Q 97.92 4.735 97.632 4.419 A 3.484 3.484 0 0 0 96.943 3.832 A 3.037 3.037 0 0 0 96.485 3.589 A 3.368 3.368 0 0 0 95.612 3.347 A 3.024 3.024 0 0 0 95.215 3.32 A 4.425 4.425 0 0 0 93.313 3.767 Q 92.709 4.051 92.108 4.518 A 8.073 8.073 0 0 0 92.017 4.59 A 9.665 9.665 0 0 0 90.515 6.11 Q 89.899 6.881 89.347 7.841 A 16.72 16.72 0 0 0 89.185 8.13 A 19.204 19.204 0 0 0 88.056 10.614 Q 87.581 11.879 87.208 13.331 A 31.256 31.256 0 0 0 87.158 13.526 A 26.145 26.145 0 0 0 86.469 17.858 A 31.875 31.875 0 0 0 86.377 20.313 A 26.001 26.001 0 0 0 86.586 23.67 A 21.406 21.406 0 0 0 86.939 25.659 A 21.578 21.578 0 0 0 87.5 27.686 Q 87.906 28.905 88.428 29.907 A 10.557 10.557 0 0 0 89.298 31.314 Q 89.843 32.05 90.47 32.583 A 6.398 6.398 0 0 0 90.601 32.691 A 4.775 4.775 0 0 0 91.764 33.392 A 3.88 3.88 0 0 0 93.262 33.692 Q 94.336 33.692 95.313 33.106 Q 96.289 32.52 96.973 31.494 A 7.56 7.56 0 0 0 97.619 30.291 A 10.433 10.433 0 0 0 98.071 29.004 Q 98.487 27.539 98.487 25.781 Q 98.487 24.453 98.437 23.606 A 15.349 15.349 0 0 0 98.413 23.267 A 38.33 38.33 0 0 0 98.377 22.843 Q 98.339 22.433 98.301 22.141 A 8.744 8.744 0 0 0 98.267 21.9 A 6.16 6.16 0 0 0 98.239 21.738 Q 98.194 21.491 98.148 21.388 A 0.255 0.255 0 0 0 98.12 21.338 L 98.047 21.24 A 0.61 0.61 0 0 1 98.07 21.241 Q 98.17 21.246 98.654 21.278 A 274.939 274.939 0 0 1 98.828 21.289 A 11.602 11.602 0 0 1 99.578 21.365 Q 99.972 21.417 100.406 21.498 A 18.979 18.979 0 0 1 100.464 21.509 A 7.112 7.112 0 0 1 101.951 21.958 A 6.554 6.554 0 0 1 102.149 22.046 Q 102.816 22.359 103.091 22.867 A 1.53 1.53 0 0 1 103.174 23.047 Q 103.355 23.636 103.41 25.168 A 31.627 31.627 0 0 1 103.418 25.415 A 49.812 49.812 0 0 1 103.436 26.486 Q 103.445 27.771 103.394 29.224 Q 103.32 31.299 103.247 33.35 A 155.939 155.939 0 0 0 103.215 34.329 Q 103.18 35.533 103.175 36.433 A 51.741 51.741 0 0 0 103.174 36.719 A 0.464 0.464 0 0 1 103.108 36.945 Q 102.967 37.197 102.524 37.494 A 4.377 4.377 0 0 1 102.515 37.5 A 7.529 7.529 0 0 1 101.395 38.112 A 8.665 8.665 0 0 1 101.05 38.257 A 6.227 6.227 0 0 1 100.368 38.483 Q 99.998 38.582 99.657 38.615 A 3.705 3.705 0 0 1 99.561 38.623 A 2.179 2.179 0 0 1 99.478 38.628 Q 98.874 38.648 98.828 38.281 Z M 6.738 36.694 A 9.096 9.096 0 0 0 11.524 37.988 A 12.987 12.987 0 0 0 11.846 37.984 Q 14.029 37.93 15.576 37.134 A 10.059 10.059 0 0 0 16.081 36.856 A 8.56 8.56 0 0 0 18.335 34.961 A 10.604 10.604 0 0 0 20.044 32.129 A 21.126 21.126 0 0 0 20.547 30.753 A 15.894 15.894 0 0 0 20.947 29.297 Q 21.24 27.979 21.289 27.051 A 29.548 29.548 0 0 0 21.297 26.893 Q 21.334 26.119 21.289 26.074 A 4.328 4.328 0 0 0 21.148 25.862 A 3.668 3.668 0 0 0 20.752 25.391 A 3.816 3.816 0 0 0 20.713 25.358 Q 20.573 25.245 20.406 25.131 A 6.406 6.406 0 0 0 20.044 24.902 A 1.741 1.741 0 0 0 19.904 24.829 Q 19.702 24.733 19.457 24.677 A 3.18 3.18 0 0 0 18.994 24.61 A 29.448 29.448 0 0 1 18.978 24.758 Q 18.581 28.263 17.505 30.151 Q 16.844 31.312 16.139 32.092 A 6.099 6.099 0 0 1 15.186 32.959 Q 13.77 33.985 12.061 34.131 Q 11.182 34.131 9.937 33.569 A 4.373 4.373 0 0 1 9.281 33.201 Q 8.392 32.598 7.569 31.47 A 8.777 8.777 0 0 1 6.931 30.447 Q 6.564 29.765 6.242 28.925 A 20.372 20.372 0 0 1 5.664 27.173 Q 5.152 25.363 4.975 22.869 A 39.836 39.836 0 0 1 4.883 20.068 A 40.361 40.361 0 0 1 4.901 18.856 Q 4.954 17.073 5.169 15.503 A 22.19 22.19 0 0 1 5.786 12.476 A 27.547 27.547 0 0 1 6.067 11.545 Q 6.468 10.293 6.949 9.233 A 14.799 14.799 0 0 1 8.057 7.202 A 16.009 16.009 0 0 1 8.458 6.622 Q 9.017 5.849 9.603 5.246 A 8.436 8.436 0 0 1 10.962 4.102 Q 11.803 3.541 12.579 3.287 A 3.975 3.975 0 0 1 13.819 3.076 Q 14.404 3.076 15.039 3.32 A 3.459 3.459 0 0 1 15.524 3.552 A 4.067 4.067 0 0 1 16.236 4.077 A 3.347 3.347 0 0 1 16.714 4.622 A 4.144 4.144 0 0 1 17.139 5.396 A 4.156 4.156 0 0 1 17.408 6.342 A 5.708 5.708 0 0 1 17.481 7.276 Q 17.434 8.183 17.277 8.98 A 8.559 8.559 0 0 1 16.797 10.596 A 5.731 5.731 0 0 1 16.258 11.556 A 6.719 6.719 0 0 1 15.137 12.793 Q 14.133 13.666 12.387 13.642 A 7.422 7.422 0 0 1 11.963 13.623 A 5.66 5.66 0 0 0 12.453 14.124 A 4.429 4.429 0 0 0 13.33 14.746 A 8.361 8.361 0 0 0 13.917 15.031 A 6.611 6.611 0 0 0 14.746 15.332 A 9.583 9.583 0 0 0 15.134 15.421 A 8.306 8.306 0 0 0 16.26 15.576 A 4.949 4.949 0 0 0 18.659 14.973 A 6.082 6.082 0 0 0 20.142 13.818 Q 21.826 12.061 22.07 9.229 A 8.548 8.548 0 0 0 22.112 8.378 Q 22.112 7.296 21.851 6.128 A 7.987 7.987 0 0 0 20.484 3.125 A 7.107 7.107 0 0 0 19.561 2.095 A 8.24 8.24 0 0 0 17.822 0.879 A 6.397 6.397 0 0 0 17.332 0.646 Q 15.814 0 13.721 0 A 9.112 9.112 0 0 0 11.44 0.291 A 10.602 10.602 0 0 0 8.667 1.465 A 12.906 12.906 0 0 0 6.404 3.182 A 16.34 16.34 0 0 0 4.273 5.664 A 19.629 19.629 0 0 0 2.437 8.914 A 27.02 27.02 0 0 0 1.172 12.354 A 27.397 27.397 0 0 0 0.275 16.718 A 37.018 37.018 0 0 0 0 21.338 A 28.792 28.792 0 0 0 0.079 23.488 A 24.03 24.03 0 0 0 0.806 27.881 A 20.593 20.593 0 0 0 1.506 30.042 A 16.271 16.271 0 0 0 3.101 33.154 A 13.201 13.201 0 0 0 3.398 33.584 A 11.278 11.278 0 0 0 6.738 36.694 Z M 132.666 3.272 Q 133.057 2.735 133.521 2.344 A 5.103 5.103 0 0 1 134.163 1.881 A 4.376 4.376 0 0 1 134.473 1.709 Q 135.01 1.465 135.596 1.318 A 4.213 4.213 0 0 1 136.075 1.24 A 3.404 3.404 0 0 1 136.426 1.221 A 4.369 4.369 0 0 1 137.025 1.261 A 3.997 3.997 0 0 1 137.085 1.27 Q 137.403 1.318 137.598 1.514 A 1816.479 1816.479 0 0 1 137.528 3.172 Q 137.5 3.821 137.475 4.402 A 895.575 895.575 0 0 1 137.427 5.493 Q 137.377 6.618 137.326 7.546 A 140.375 140.375 0 0 1 137.28 8.35 A 311.074 311.074 0 0 0 137.221 9.366 Q 137.195 9.832 137.173 10.249 A 181.436 181.436 0 0 0 137.158 10.523 A 81.82 81.82 0 0 1 137.036 12.451 A 188.634 188.634 0 0 1 136.957 13.471 A 240.467 240.467 0 0 1 136.865 14.575 A 83.729 83.729 0 0 0 136.792 15.501 Q 136.731 16.327 136.67 17.334 Q 136.572 18.36 136.524 19.409 A 2015.903 2015.903 0 0 0 136.426 21.533 A 21.862 21.862 0 0 1 137.061 19.969 A 26.475 26.475 0 0 1 137.525 18.994 Q 138.184 17.676 139.063 16.602 Q 139.942 15.527 141.065 14.819 Q 142.188 14.111 143.506 14.111 A 5.209 5.209 0 0 1 144.795 14.263 A 3.731 3.731 0 0 1 146.485 15.186 Q 147.608 16.26 148.194 17.798 Q 148.779 19.336 148.95 21.045 A 38.349 38.349 0 0 1 149.067 22.466 Q 149.108 23.115 149.118 23.694 A 21.639 21.639 0 0 1 149.121 24.072 Q 149.121 25.342 148.804 27.075 A 12.121 12.121 0 0 1 147.681 30.396 A 8.681 8.681 0 0 1 145.557 33.106 A 4.649 4.649 0 0 1 143.195 34.158 A 6.319 6.319 0 0 1 142.237 34.229 Q 140.82 34.229 139.844 33.643 A 6.573 6.573 0 0 1 138.805 32.878 A 5.478 5.478 0 0 1 138.233 32.276 A 6.089 6.089 0 0 1 137.718 31.543 A 4.497 4.497 0 0 1 137.329 30.713 Q 137.063 29.938 137.061 29.596 A 0.876 0.876 0 0 1 137.061 29.59 Q 137.061 29.345 137.186 29.037 A 2.876 2.876 0 0 1 137.305 28.784 A 5.163 5.163 0 0 1 137.891 27.905 A 3.871 3.871 0 0 1 138.326 27.454 A 3.212 3.212 0 0 1 138.623 27.222 A 2.021 2.021 0 0 1 138.791 27.117 Q 139.014 26.995 139.179 26.995 A 0.4 0.4 0 0 1 139.258 27.002 Q 139.16 28.613 139.478 29.468 A 4.904 4.904 0 0 0 139.688 29.957 Q 139.932 30.444 140.235 30.713 Q 140.772 31.201 141.406 31.25 Q 142.334 31.25 143.042 30.371 A 7.029 7.029 0 0 0 143.769 29.259 A 9.357 9.357 0 0 0 144.238 28.223 A 14.505 14.505 0 0 0 144.827 26.284 A 17.089 17.089 0 0 0 144.995 25.464 A 18.78 18.78 0 0 0 145.179 24.222 Q 145.248 23.604 145.261 23.054 A 10.674 10.674 0 0 0 145.264 22.803 A 14.413 14.413 0 0 0 145.216 21.657 A 17.712 17.712 0 0 0 145.142 20.923 A 12.975 12.975 0 0 0 144.942 19.729 A 10.736 10.736 0 0 0 144.776 19.068 A 4.812 4.812 0 0 0 144.535 18.403 Q 144.376 18.053 144.172 17.778 A 2.805 2.805 0 0 0 144.092 17.676 A 1.576 1.576 0 0 0 143.719 17.338 A 1.281 1.281 0 0 0 143.018 17.139 A 2.202 2.202 0 0 0 142.077 17.364 Q 141.738 17.523 141.391 17.794 A 5.888 5.888 0 0 0 140.772 18.36 Q 139.6 19.58 138.623 21.558 A 20.762 20.762 0 0 0 137.584 24.087 A 26.177 26.177 0 0 0 137.012 26.026 A 18.99 18.99 0 0 0 136.422 30.734 A 19.571 19.571 0 0 0 136.426 31.104 A 11.051 11.051 0 0 0 136.436 31.592 Q 136.448 31.858 136.473 32.093 A 6.064 6.064 0 0 0 136.499 32.3 Q 136.562 32.741 136.643 33.091 A 6.45 6.45 0 0 0 136.67 33.203 A 15.165 15.165 0 0 1 136.05 33.447 Q 135.444 33.669 135.006 33.756 A 3.498 3.498 0 0 1 134.815 33.789 A 2.57 2.57 0 0 1 134.628 33.829 Q 134.411 33.866 134.249 33.849 A 0.791 0.791 0 0 1 134.18 33.838 A 1.961 1.961 0 0 1 133.665 33.774 A 1.489 1.489 0 0 1 133.057 33.447 A 1.072 1.072 0 0 1 132.821 33.128 Q 132.588 32.67 132.52 31.787 A 4.092 4.092 0 0 1 132.503 31.568 Q 132.473 31.024 132.471 29.618 A 148.511 148.511 0 0 1 132.471 29.37 L 132.471 24.585 A 728.827 728.827 0 0 1 132.477 21.662 A 916.501 916.501 0 0 1 132.495 18.506 A 10788.227 10788.227 0 0 1 132.532 13.736 A 9594.616 9594.616 0 0 1 132.544 12.207 A 3202.815 3202.815 0 0 1 132.568 9.418 Q 132.58 8.009 132.593 6.763 Q 132.617 4.346 132.666 3.272 Z M 25.195 23.731 L 25.195 20.117 A 519.42 519.42 0 0 0 25.194 18.913 Q 25.189 16.95 25.171 14.038 A 4420.169 4420.169 0 0 0 25.157 11.94 Q 25.134 8.557 25.098 3.76 A 36.744 36.744 0 0 1 25.603 3.489 Q 25.843 3.363 26.06 3.254 A 21.363 21.363 0 0 1 26.074 3.247 A 9.673 9.673 0 0 1 26.553 3.023 A 7.563 7.563 0 0 1 26.904 2.881 A 5.789 5.789 0 0 1 27.358 2.701 A 4.432 4.432 0 0 1 27.735 2.588 A 14.337 14.337 0 0 1 28.199 2.477 Q 29.846 2.114 29.932 2.588 A 2.04 2.04 0 0 1 29.939 2.698 Q 29.963 3.229 29.871 5.029 A 154.534 154.534 0 0 1 29.834 5.713 A 130.864 130.864 0 0 1 29.807 6.311 Q 29.761 7.263 29.688 8.545 Q 29.59 10.254 29.468 12.695 Q 29.384 14.374 29.277 16.456 A 4259.477 4259.477 0 0 1 29.175 18.433 A 1238.767 1238.767 0 0 1 29.011 21.508 Q 28.926 23.083 28.827 24.837 A 2157.033 2157.033 0 0 1 28.76 26.026 A 744.894 744.894 0 0 1 29.175 24.783 Q 29.338 24.296 29.485 23.862 A 364.951 364.951 0 0 1 29.761 23.047 A 68.762 68.762 0 0 1 29.961 22.467 Q 30.209 21.759 30.406 21.254 A 20.18 20.18 0 0 1 30.469 21.094 A 46.825 46.825 0 0 1 30.634 20.676 Q 30.838 20.164 31.002 19.795 A 14.541 14.541 0 0 1 31.055 19.678 A 21.315 21.315 0 0 1 31.714 18.115 A 18.048 18.048 0 0 1 32.181 17.186 A 15.096 15.096 0 0 1 32.471 16.675 A 14.271 14.271 0 0 1 32.757 16.211 Q 32.902 15.986 33.04 15.794 A 7.297 7.297 0 0 1 33.203 15.576 Q 33.545 15.137 33.789 14.99 A 0.362 0.362 0 0 1 33.869 14.963 Q 34.084 14.914 34.599 14.978 A 7.663 7.663 0 0 1 34.693 14.99 A 4.924 4.924 0 0 1 35.34 15.127 Q 35.666 15.218 36.018 15.357 A 8.652 8.652 0 0 1 36.255 15.454 A 6.427 6.427 0 0 1 37.771 16.377 A 7.2 7.2 0 0 1 37.866 16.455 A 3.299 3.299 0 0 1 38.916 18.018 Q 39.182 19.035 39.126 20.615 A 17.544 17.544 0 0 1 39.112 20.947 A 104.587 104.587 0 0 1 38.854 24.539 A 114.118 114.118 0 0 1 38.843 24.658 A 81.931 81.931 0 0 0 38.654 27.184 A 69.253 69.253 0 0 0 38.599 28.272 A 16.125 16.125 0 0 0 38.586 28.686 Q 38.562 30.076 38.813 30.844 A 2.84 2.84 0 0 0 38.819 30.86 L 39.209 31.836 A 7.855 7.855 0 0 0 39.482 32.334 A 9.459 9.459 0 0 0 39.673 32.642 A 3.388 3.388 0 0 0 40.087 33.165 A 2.967 2.967 0 0 0 40.283 33.35 Q 39.075 33.808 38.275 34.071 A 21.16 21.16 0 0 1 38.013 34.155 A 34.229 34.229 0 0 1 37.612 34.279 Q 37.224 34.395 36.948 34.466 A 7.303 7.303 0 0 1 36.719 34.522 A 3.539 3.539 0 0 1 36.547 34.564 Q 36.185 34.644 36.018 34.584 A 0.286 0.286 0 0 1 35.987 34.57 A 0.998 0.998 0 0 1 35.692 34.391 Q 35.464 34.197 35.254 33.838 A 3.029 3.029 0 0 1 35.06 33.43 Q 34.889 32.999 34.747 32.363 A 13.162 13.162 0 0 1 34.668 31.983 A 1.686 1.686 0 0 1 34.634 31.794 Q 34.588 31.442 34.611 30.812 A 14.839 14.839 0 0 1 34.619 30.615 A 62.398 62.398 0 0 1 34.678 29.612 Q 34.713 29.083 34.76 28.497 A 101.312 101.312 0 0 1 34.766 28.418 A 343.744 343.744 0 0 0 34.912 26.518 A 395.687 395.687 0 0 0 34.961 25.855 A 265.472 265.472 0 0 1 35.059 24.555 A 216.748 216.748 0 0 1 35.156 23.34 A 49.089 49.089 0 0 0 35.219 22.502 Q 35.25 22.046 35.266 21.644 A 26.165 26.165 0 0 0 35.278 21.289 A 23.878 23.878 0 0 0 35.283 21.079 Q 35.295 20.476 35.265 20.201 A 1.472 1.472 0 0 0 35.254 20.117 Q 35.094 19.573 34.85 19.228 A 1.598 1.598 0 0 0 34.57 18.921 A 1.387 1.387 0 0 0 34.452 18.832 Q 34.129 18.617 33.926 18.806 A 0.454 0.454 0 0 0 33.887 18.848 A 4.607 4.607 0 0 0 33.548 19.343 Q 33.211 19.901 32.838 20.769 A 23.238 23.238 0 0 0 32.593 21.362 A 46.986 46.986 0 0 0 31.737 23.705 A 56.525 56.525 0 0 0 31.25 25.22 Q 30.615 27.295 30.152 29.346 Q 29.688 31.397 29.59 32.715 Q 29.59 32.967 29.247 33.237 A 2.247 2.247 0 0 1 29.126 33.325 A 5.999 5.999 0 0 1 28.325 33.785 A 6.86 6.86 0 0 1 28.101 33.887 A 4.475 4.475 0 0 1 27.411 34.125 A 3.738 3.738 0 0 1 27.002 34.204 A 1.94 1.94 0 0 1 26.885 34.217 Q 26.579 34.24 26.402 34.143 A 0.432 0.432 0 0 1 26.27 34.033 A 3.316 3.316 0 0 1 26.19 33.951 Q 26.061 33.812 25.819 33.533 A 54.447 54.447 0 0 1 25.659 33.35 A 1.633 1.633 0 0 1 25.389 32.894 Q 25.209 32.451 25.16 31.778 A 6.72 6.72 0 0 1 25.147 31.543 Q 25.056 30.408 25.134 28.493 A 56.237 56.237 0 0 1 25.147 28.198 A 63.051 63.051 0 0 0 25.211 25.646 Q 25.216 24.707 25.195 23.731 Z M 77.938 11.777 A 40.81 40.81 0 0 0 77.857 11.768 Q 76.953 11.67 76.026 11.621 A 47.188 47.188 0 0 0 74.626 11.579 A 57.006 57.006 0 0 0 73.731 11.572 A 16.643 16.643 0 0 0 73.008 11.531 Q 72.003 11.495 70.679 11.548 Q 68.848 11.621 66.846 11.621 Q 66.797 12.891 66.675 14.209 Q 66.553 15.527 66.455 16.797 A 141.694 141.694 0 0 0 66.04 21.582 A 70.007 70.007 0 0 0 65.886 24.824 A 59.506 59.506 0 0 0 65.869 26.221 A 31.137 31.137 0 0 0 65.936 28.314 A 23.122 23.122 0 0 0 66.138 30.2 A 9.346 9.346 0 0 0 66.377 31.336 Q 66.658 32.335 67.139 33.008 Q 66.553 33.447 65.869 33.667 A 12.235 12.235 0 0 1 65.299 33.836 Q 64.951 33.93 64.649 33.985 A 5.629 5.629 0 0 1 63.379 34.131 A 1.444 1.444 0 0 1 62.865 34.042 A 1.298 1.298 0 0 1 62.403 33.74 A 1.171 1.171 0 0 1 62.166 33.384 Q 62.018 33.051 61.974 32.54 A 4.777 4.777 0 0 1 61.963 32.373 A 32.439 32.439 0 0 1 61.907 30.468 A 33.135 33.135 0 0 1 61.939 29.028 A 148.315 148.315 0 0 1 62.024 27.301 A 171.749 171.749 0 0 1 62.134 25.488 A 1142.715 1142.715 0 0 1 62.262 23.566 A 1399.728 1399.728 0 0 1 62.403 21.509 Q 62.549 19.385 62.695 16.846 A 92.982 92.982 0 0 0 62.841 12.031 A 85.107 85.107 0 0 0 62.842 11.719 A 171.58 171.58 0 0 1 61.533 11.749 Q 61.022 11.758 60.568 11.763 A 81.264 81.264 0 0 1 59.717 11.768 Q 58.447 11.768 58.301 11.719 A 0.528 0.528 0 0 1 58.217 11.647 Q 58.138 11.566 58.047 11.425 A 3.168 3.168 0 0 1 57.959 11.279 Q 57.81 11.055 57.589 10.659 A 23.219 23.219 0 0 1 57.446 10.401 Q 57.203 9.952 56.86 9.217 A 51.15 51.15 0 0 1 56.641 8.74 L 58.667 8.74 A 43.885 43.885 0 0 0 59.723 8.728 A 34.133 34.133 0 0 0 60.694 8.692 L 62.842 8.594 A 24.987 24.987 0 0 1 62.8 7.579 A 29.707 29.707 0 0 1 62.793 6.934 Q 62.746 6.272 62.744 5.45 A 29.615 29.615 0 0 1 62.744 5.396 A 26.818 26.818 0 0 0 62.732 4.572 A 21.354 21.354 0 0 0 62.695 3.809 Q 62.695 3.516 63.403 3.101 A 11.884 11.884 0 0 1 64.534 2.519 A 13.623 13.623 0 0 1 64.942 2.344 Q 65.713 2.026 66.38 1.919 A 4.641 4.641 0 0 1 66.48 1.904 A 2.097 2.097 0 0 1 66.573 1.894 Q 67.188 1.837 67.188 2.246 A 31.717 31.717 0 0 1 67.187 2.455 Q 67.183 2.958 67.166 4.159 A 830.603 830.603 0 0 1 67.163 4.37 A 113.068 113.068 0 0 1 67.135 5.733 Q 67.102 6.952 67.041 8.447 A 8.041 8.041 0 0 0 67.27 8.444 Q 67.512 8.437 67.676 8.415 A 1.652 1.652 0 0 0 67.774 8.399 Q 70.089 8.311 71.603 8.204 A 55.217 55.217 0 0 0 71.948 8.179 Q 73.183 8.084 74.077 8.122 A 9.246 9.246 0 0 1 74.561 8.154 A 5.776 5.776 0 0 1 75.553 8.333 A 4.493 4.493 0 0 1 76.367 8.643 A 5.598 5.598 0 0 1 76.977 9.002 Q 77.279 9.204 77.604 9.467 A 12.779 12.779 0 0 1 78.125 9.912 A 3.627 3.627 0 0 1 78.632 10.441 A 3.305 3.305 0 0 1 78.711 10.547 A 2.998 2.998 0 0 1 79.105 11.161 A 3.326 3.326 0 0 1 79.126 11.206 Q 79.297 11.572 79.297 11.963 Q 78.784 11.87 77.938 11.777 Z M 56.738 31.201 A 2.253 2.253 0 0 0 57.031 31.836 A 1.587 1.587 0 0 0 57.228 32.096 A 2.151 2.151 0 0 0 57.446 32.3 A 1.201 1.201 0 0 0 57.918 32.533 A 1.533 1.533 0 0 0 58.106 32.568 Q 57.805 33.17 57.504 33.431 A 1.103 1.103 0 0 1 57.422 33.496 Q 57.295 33.592 57.188 33.646 A 0.801 0.801 0 0 1 57.08 33.692 A 2.179 2.179 0 0 1 56.781 33.766 Q 56.469 33.822 56.026 33.834 A 9.356 9.356 0 0 1 55.762 33.838 A 2.976 2.976 0 0 1 54.422 33.512 A 3.78 3.78 0 0 1 54.053 33.301 Q 53.825 33.111 53.627 32.774 A 3.454 3.454 0 0 1 53.516 32.568 A 2.381 2.381 0 0 1 53.357 32.262 Q 53.213 31.934 53.101 31.47 A 8.18 8.18 0 0 1 52.992 30.934 Q 52.896 30.376 52.832 29.639 Q 52.149 31.104 51.294 31.958 Q 50.566 32.686 49.857 33.077 A 4.343 4.343 0 0 1 49.61 33.203 A 4.945 4.945 0 0 1 48.371 33.719 A 4.392 4.392 0 0 1 47.705 33.838 A 4.858 4.858 0 0 1 47.318 33.854 A 4.516 4.516 0 0 1 45.386 33.423 A 4.703 4.703 0 0 1 43.626 31.99 A 5.57 5.57 0 0 1 43.53 31.86 Q 42.774 30.811 42.383 29.297 A 8.896 8.896 0 0 1 42.139 27.84 Q 42.059 26.918 42.139 25.879 A 13.348 13.348 0 0 1 42.42 23.931 A 10.249 10.249 0 0 1 42.92 22.315 Q 43.555 20.752 44.434 19.531 Q 45.313 18.311 46.289 17.456 A 16.906 16.906 0 0 1 47.247 16.675 A 12.538 12.538 0 0 1 48.169 16.04 A 15.61 15.61 0 0 1 48.787 15.674 Q 49.081 15.51 49.343 15.384 A 6.861 6.861 0 0 1 49.732 15.21 A 28.818 28.818 0 0 1 49.963 15.117 Q 50.313 14.978 50.489 14.921 A 1.561 1.561 0 0 1 50.586 14.893 Q 51.123 14.746 51.514 14.795 A 0.897 0.897 0 0 1 51.984 15.006 A 1.356 1.356 0 0 1 52.197 15.235 A 5.636 5.636 0 0 0 52.278 15.351 Q 52.314 15.403 52.355 15.459 A 10.669 10.669 0 0 0 52.442 15.576 A 10.835 10.835 0 0 1 52.493 15.682 Q 52.576 15.851 52.686 16.089 A 3.701 3.701 0 0 1 52.85 16.514 A 4.585 4.585 0 0 1 52.93 16.797 A 17.72 17.72 0 0 0 50.797 17.952 A 16.368 16.368 0 0 0 50.733 17.993 A 9.632 9.632 0 0 0 48.853 19.58 Q 47.998 20.508 47.363 21.826 A 9.922 9.922 0 0 0 46.864 23.092 Q 46.579 23.978 46.387 25.049 A 10.066 10.066 0 0 0 46.246 25.924 Q 46.042 27.72 46.655 28.906 A 3.273 3.273 0 0 0 47.029 29.485 Q 47.712 30.316 48.731 30.127 A 3.485 3.485 0 0 0 49.594 29.713 A 4.791 4.791 0 0 0 50.244 29.199 Q 50.671 28.806 51.13 28.147 A 12.774 12.774 0 0 0 51.587 27.442 Q 52.063 26.654 52.505 25.47 A 23.029 23.029 0 0 0 52.93 24.219 A 482.287 482.287 0 0 1 53.047 22.832 Q 53.164 21.482 53.261 20.463 A 138.958 138.958 0 0 1 53.345 19.605 A 83.608 83.608 0 0 1 53.429 18.813 Q 53.552 17.7 53.662 17.041 Q 53.858 16.016 53.955 15.674 Q 54.092 15.446 54.485 15.239 A 3.004 3.004 0 0 1 54.541 15.21 A 4.964 4.964 0 0 1 55.16 14.953 A 6.006 6.006 0 0 1 55.518 14.844 A 5.79 5.79 0 0 1 55.969 14.739 Q 56.247 14.687 56.494 14.673 A 5.985 5.985 0 0 1 56.6 14.668 Q 56.907 14.656 57.044 14.687 A 0.385 0.385 0 0 1 57.08 14.697 A 0.094 0.094 0 0 1 57.113 14.754 Q 57.178 14.961 57.178 15.894 Q 57.178 17.041 57.105 18.775 A 566.709 566.709 0 0 1 57.025 20.581 A 716.362 716.362 0 0 1 56.934 22.534 A 548.666 548.666 0 0 0 56.842 24.506 A 461.711 461.711 0 0 0 56.763 26.367 Q 56.713 27.609 56.685 28.632 A 104.534 104.534 0 0 0 56.665 29.517 Q 56.643 30.745 56.723 31.136 A 0.885 0.885 0 0 0 56.738 31.201 Z M 156.264 33.939 A 8.126 8.126 0 0 0 158.496 34.229 A 7.055 7.055 0 0 0 159.809 34.112 A 5.132 5.132 0 0 0 161.646 33.399 Q 162.94 32.568 163.77 31.47 Q 164.6 30.371 164.966 29.273 Q 165.232 28.474 165.305 27.973 A 2.369 2.369 0 0 0 165.332 27.637 A 1.751 1.751 0 0 0 165.331 27.585 Q 165.316 27.051 164.966 27.051 A 0.806 0.806 0 0 0 164.864 27.057 Q 164.579 27.093 164.453 27.344 Q 164.307 27.686 163.916 28.345 A 5.806 5.806 0 0 1 163.52 28.927 A 7.368 7.368 0 0 1 162.891 29.639 A 5.866 5.866 0 0 1 162.325 30.135 A 7.167 7.167 0 0 1 161.353 30.762 A 3.91 3.91 0 0 1 160.415 31.12 A 4.792 4.792 0 0 1 159.278 31.25 A 4.924 4.924 0 0 1 158.803 31.228 A 3.607 3.607 0 0 1 156.494 30.151 A 2.839 2.839 0 0 1 156.17 29.751 Q 155.396 28.602 155.274 26.27 A 3.006 3.006 0 0 0 156.25 26.856 Q 156.577 26.975 156.995 27.021 A 5.194 5.194 0 0 0 157.569 27.051 Q 158.789 27.051 160.108 26.318 A 8.967 8.967 0 0 0 160.674 25.976 A 9.863 9.863 0 0 0 162.525 24.39 A 10.035 10.035 0 0 0 164.307 21.655 A 8.686 8.686 0 0 0 164.467 21.27 A 7.454 7.454 0 0 0 164.99 18.555 Q 164.99 16.162 163.721 14.868 A 5.042 5.042 0 0 0 163.661 14.808 A 4.142 4.142 0 0 0 160.645 13.574 A 7.091 7.091 0 0 0 157.105 14.526 A 9.157 9.157 0 0 0 156.19 15.118 A 10.082 10.082 0 0 0 154.151 17.139 A 11.981 11.981 0 0 0 153.138 18.708 A 14.678 14.678 0 0 0 152.124 21.069 A 14.179 14.179 0 0 0 151.793 22.225 A 15.723 15.723 0 0 0 151.367 25.928 A 14.603 14.603 0 0 0 151.369 26.139 Q 151.389 27.525 151.674 28.709 A 8.037 8.037 0 0 0 153.223 31.934 A 5.896 5.896 0 0 0 156.264 33.939 Z M 111.133 1.758 L 112.061 1.758 A 4.698 4.698 0 0 1 112.568 1.787 A 5.73 5.73 0 0 1 112.891 1.831 A 3.478 3.478 0 0 1 113.2 1.896 Q 113.44 1.959 113.623 2.051 A 64.729 64.729 0 0 1 113.51 3.692 Q 113.442 4.533 113.347 5.469 A 113.972 113.972 0 0 1 113.281 6.104 Q 113.037 8.399 112.769 11.035 A 628.324 628.324 0 0 0 112.366 15.128 A 715.803 715.803 0 0 0 112.232 16.553 Q 111.963 19.434 111.768 22.363 A 103.665 103.665 0 0 0 111.692 23.611 Q 111.594 25.402 111.594 26.704 A 31.56 31.56 0 0 0 111.597 27.124 A 30.826 30.826 0 0 0 111.634 28.305 Q 111.661 28.832 111.707 29.287 A 13.059 13.059 0 0 0 111.817 30.127 Q 112.012 31.299 112.354 31.983 A 6.482 6.482 0 0 0 113.038 33.061 A 7.433 7.433 0 0 0 113.233 33.301 Q 112.598 33.692 112.061 33.887 A 13.162 13.162 0 0 1 111.678 34.02 Q 111.49 34.082 111.324 34.129 A 6.307 6.307 0 0 1 111.133 34.18 Q 110.706 34.308 110.354 34.324 A 2.186 2.186 0 0 1 110.254 34.326 A 1.426 1.426 0 0 1 109.293 33.953 A 2.221 2.221 0 0 1 108.985 33.618 Q 108.447 32.91 108.13 31.787 A 14.835 14.835 0 0 1 107.827 30.479 A 19.539 19.539 0 0 1 107.642 29.273 Q 107.471 27.881 107.471 26.514 A 53.685 53.685 0 0 1 107.49 25.143 Q 107.508 24.44 107.543 23.654 A 95.625 95.625 0 0 1 107.569 23.12 A 680.351 680.351 0 0 1 107.672 21.13 A 813.906 813.906 0 0 1 107.788 19.019 A 779.739 779.739 0 0 1 107.985 15.65 A 886.411 886.411 0 0 1 108.057 14.478 Q 108.203 12.11 108.301 9.766 A 306.816 306.816 0 0 1 108.399 8.045 A 224.417 224.417 0 0 1 108.496 6.494 A 89.028 89.028 0 0 0 108.582 5.28 A 66.793 66.793 0 0 0 108.643 4.175 A 18.664 18.664 0 0 0 108.65 4.006 Q 108.683 3.109 108.594 2.93 Q 108.887 2.539 109.326 2.344 Q 109.766 2.149 110.156 2.002 Q 110.645 1.856 111.133 1.758 Z M 129.073 27.64 A 13.378 13.378 0 0 0 129.395 25.293 A 23.065 23.065 0 0 0 129.402 25.152 Q 129.475 23.535 129.307 22.185 A 11.364 11.364 0 0 0 128.955 20.435 Q 128.369 18.408 127.564 17.139 A 9.776 9.776 0 0 0 127.194 16.595 Q 126.563 15.736 125.903 15.283 A 8.513 8.513 0 0 0 125.791 15.208 Q 125.026 14.701 124.707 14.746 A 3.333 3.333 0 0 0 124.539 14.767 A 3.645 3.645 0 0 0 123.731 14.99 A 1.918 1.918 0 0 0 123.704 15.001 Q 123.504 15.079 123.303 15.209 A 3.105 3.105 0 0 0 122.949 15.479 A 2.308 2.308 0 0 0 122.631 15.822 A 2.796 2.796 0 0 0 122.315 16.358 A 7.714 7.714 0 0 0 122.283 15.944 Q 122.241 15.556 122.164 15.311 A 1.143 1.143 0 0 0 122.07 15.088 A 1.262 1.262 0 0 0 122.04 15.031 Q 121.958 14.885 121.875 14.844 A 22.375 22.375 0 0 0 121.546 14.752 A 17.525 17.525 0 0 0 121.24 14.673 A 0.825 0.825 0 0 0 121.04 14.649 Q 120.93 14.649 120.815 14.676 A 1.291 1.291 0 0 0 120.606 14.746 A 0.608 0.608 0 0 0 120.603 14.748 Q 120.443 14.829 119.918 15.211 A 37.308 37.308 0 0 0 119.653 15.405 A 5.46 5.46 0 0 0 119.119 15.864 Q 118.844 16.129 118.555 16.466 A 13.286 13.286 0 0 0 118.018 17.139 A 10.293 10.293 0 0 0 117.766 17.49 Q 117.391 18.037 117.034 18.698 A 19.06 19.06 0 0 0 116.358 20.093 A 9.045 9.045 0 0 0 116.198 20.482 Q 115.867 21.343 115.673 22.356 A 15.515 15.515 0 0 0 115.43 24.365 Q 115.235 26.514 115.698 28.345 A 11.102 11.102 0 0 0 116.112 29.646 A 8.642 8.642 0 0 0 117.09 31.494 A 8.154 8.154 0 0 0 117.574 32.117 A 6.711 6.711 0 0 0 119.263 33.545 A 4.822 4.822 0 0 0 121.748 34.232 A 5.117 5.117 0 0 0 121.924 34.229 A 7.946 7.946 0 0 0 122.174 34.217 A 6.822 6.822 0 0 0 124.878 33.496 Q 126.221 32.813 127.197 31.616 A 8.39 8.39 0 0 0 127.82 30.745 A 9.663 9.663 0 0 0 128.736 28.809 A 11.377 11.377 0 0 0 129.073 27.64 Z M 126.074 24.707 A 16.132 16.132 0 0 0 126.088 24.036 A 16.703 16.703 0 0 0 126.001 22.339 A 15.398 15.398 0 0 0 125.817 21.055 A 12.314 12.314 0 0 0 125.611 20.142 A 8.111 8.111 0 0 0 125.394 19.453 Q 125.274 19.125 125.136 18.854 A 3.835 3.835 0 0 0 124.951 18.53 A 2.471 2.471 0 0 0 124.768 18.278 Q 124.552 18.02 124.337 17.948 A 0.524 0.524 0 0 0 124.17 17.92 Q 123.731 18.018 123.194 18.36 A 3.142 3.142 0 0 0 122.88 18.601 Q 122.569 18.871 122.217 19.287 Q 121.831 19.743 121.471 20.476 A 10.889 10.889 0 0 0 121.192 21.094 A 1.029 1.029 0 0 1 121.167 21.006 Q 121.132 20.858 121.097 20.583 A 9.919 9.919 0 0 1 121.094 20.557 Q 121.046 20.223 121.022 19.678 A 18.353 18.353 0 0 1 121.021 19.653 A 5.225 5.225 0 0 1 121.016 19.491 Q 121.012 19.12 121.051 18.599 A 20.146 20.146 0 0 1 121.094 18.115 A 5.75 5.75 0 0 0 120.206 19.624 A 6.797 6.797 0 0 0 120.044 20.068 A 18.796 18.796 0 0 0 119.653 21.434 A 15.61 15.61 0 0 0 119.483 22.217 Q 119.287 23.438 119.19 24.658 A 15.765 15.765 0 0 0 119.179 25.242 A 15.008 15.008 0 0 0 119.312 27.246 A 10.055 10.055 0 0 0 119.544 28.443 A 7.561 7.561 0 0 0 119.898 29.492 A 6.108 6.108 0 0 0 120.278 30.247 Q 120.507 30.628 120.774 30.923 A 3.569 3.569 0 0 0 120.899 31.055 A 1.819 1.819 0 0 0 121.583 31.496 Q 121.922 31.615 122.315 31.592 A 2.175 2.175 0 0 0 123.677 31.006 A 2.814 2.814 0 0 0 123.779 30.908 A 5.372 5.372 0 0 0 124.43 30.112 A 7.249 7.249 0 0 0 124.903 29.297 A 9.475 9.475 0 0 0 125.437 27.981 A 11.728 11.728 0 0 0 125.684 27.1 A 16.106 16.106 0 0 0 126.047 25.001 A 14.665 14.665 0 0 0 126.074 24.707 Z M 160.742 15.674 Q 160.449 15.674 159.644 16.284 A 6.615 6.615 0 0 0 159.026 16.821 Q 158.713 17.126 158.387 17.508 A 14.451 14.451 0 0 0 157.935 18.067 A 12.787 12.787 0 0 0 157.016 19.443 A 17.223 17.223 0 0 0 156.275 20.874 A 10.54 10.54 0 0 0 155.511 23.26 A 13.053 13.053 0 0 0 155.322 24.561 Q 157.68 24.011 159.247 22.955 A 7.753 7.753 0 0 0 159.961 22.412 A 4.707 4.707 0 0 0 161.468 19.901 Q 161.657 19.14 161.669 18.236 A 9.242 9.242 0 0 0 161.67 18.115 Q 161.67 17.074 161.485 16.521 A 1.408 1.408 0 0 0 161.328 16.187 A 2.891 2.891 0 0 0 161.188 15.993 Q 160.935 15.674 160.742 15.674 Z" vector-effect="non-scaling-stroke"/></g></svg>