<svg width="226.1" height="38.45" viewBox="0 0 226.1 38.45" xmlns="http://www.w3.org/2000/svg"><g id="svgGroup" stroke-linecap="round" fill-rule="evenodd" font-size="9pt" stroke="#000" stroke-width="0.25mm" fill="#000" style="stroke:#000;stroke-width:0.25mm;fill:#000"><path d="M 141.757 4.776 A 9.166 9.166 0 0 0 137.7 3.9 Q 135.5 3.9 135.5 4.95 Q 135.5 5.458 136.156 6.118 A 6.215 6.215 0 0 0 136.575 6.5 Q 137.65 7.4 139.05 7.4 Q 140.45 7.4 141.75 8.55 A 7.663 7.663 0 0 1 142.801 9.692 A 9.256 9.256 0 0 1 143.85 11.5 Q 145.45 15.35 145.45 19.5 A 27.258 27.258 0 0 1 145.302 22.375 A 22.152 22.152 0 0 1 143.075 30.1 Q 141.867 32.491 140.432 33.666 A 4.621 4.621 0 0 1 137.45 34.8 A 1.347 1.347 0 0 1 136.656 34.537 Q 136.12 34.157 135.696 33.228 A 8.378 8.378 0 0 1 135.35 32.325 A 23.245 23.245 0 0 1 134.746 30.059 A 29.019 29.019 0 0 1 134.25 26.85 Q 133.95 23.85 133.3 21.375 A 12.438 12.438 0 0 0 133.218 21.078 Q 132.819 19.698 132.296 19.192 A 0.92 0.92 0 0 0 131.65 18.9 A 0.836 0.836 0 0 0 131.54 18.908 Q 130.138 19.094 126.175 23.85 Q 122.05 28.8 118.65 34.15 A 85.906 85.906 0 0 1 118.797 32.677 Q 119.296 28.038 120.632 19.363 A 932.104 932.104 0 0 1 121.75 12.3 Q 122.5 7.65 122.5 6.7 A 2.001 2.001 0 0 0 122.417 6.131 Q 122.309 5.766 122.063 5.406 A 4.068 4.068 0 0 0 121.575 4.825 A 6.177 6.177 0 0 0 121.358 4.617 Q 120.567 3.9 119.95 3.9 Q 118.95 3.9 118.95 5.65 Q 118.95 10.1 117.45 21.275 Q 115.95 32.45 115.95 34.075 A 8.634 8.634 0 0 0 115.951 34.217 Q 115.963 34.898 116.082 35.494 A 5.07 5.07 0 0 0 116.55 36.85 A 4.819 4.819 0 0 0 116.675 37.075 Q 116.971 37.575 117.29 37.805 A 0.948 0.948 0 0 0 117.85 38 Q 119.35 38 123.6 32.4 A 653.42 653.42 0 0 0 125.55 29.769 A 773.941 773.941 0 0 0 127.6 26.975 A 285.497 285.497 0 0 1 128.541 25.695 Q 129.527 24.36 130.3 23.352 A 87.175 87.175 0 0 1 131 22.45 Q 131.45 29.2 132.75 33.3 A 12.53 12.53 0 0 0 133.143 34.41 Q 134.576 37.9 137.45 37.9 A 6.21 6.21 0 0 0 138.322 37.839 Q 140.694 37.503 142.85 35.325 Q 145.4 32.75 146.925 28.6 Q 148.45 24.45 148.45 19.95 Q 148.45 13.05 145.65 8.475 Q 144.075 5.902 141.757 4.776 Z M 32.811 1.374 A 9.5 9.5 0 0 0 32.8 1.85 A 61.28 61.28 0 0 1 32.635 6.205 Q 32.423 9.174 31.938 12.578 A 138.111 138.111 0 0 1 30.7 19.8 A 79.155 79.155 0 0 1 30.32 21.637 Q 29.32 26.212 27.3 33.3 Q 26.83 35.062 26.729 35.828 A 2.737 2.737 0 0 0 26.7 36.175 A 1.405 1.405 0 0 0 26.799 36.676 Q 26.953 37.082 27.35 37.525 Q 28 38.25 28.5 38.25 Q 28.763 38.25 30.939 34.805 A 182.635 182.635 0 0 0 31.6 33.75 Q 33.05 31.4 33.7 30.425 Q 34.188 29.694 34.45 29.286 A 21.387 21.387 0 0 0 34.6 29.05 Q 34.788 28.75 34.933 28.534 A 9.224 9.224 0 0 1 35.025 28.4 A 4.247 4.247 0 0 0 35.051 28.363 Q 35.278 28.031 36.729 25.838 A 2715.367 2715.367 0 0 0 37.2 25.125 Q 39.2 22.1 41.025 19.85 A 12.784 12.784 0 0 1 41.552 19.239 Q 42.454 18.26 43.259 17.866 A 2.366 2.366 0 0 1 44.3 17.6 Q 44.9 17.6 45.575 18.375 A 2.676 2.676 0 0 1 46.074 19.209 A 2.977 2.977 0 0 1 46.25 20.25 A 8.052 8.052 0 0 1 46.248 20.424 Q 46.176 23.751 43.4 31.3 A 175.506 175.506 0 0 0 43.024 32.351 Q 42.445 33.984 42.1 35.075 Q 41.791 36.055 41.694 36.774 A 4.538 4.538 0 0 0 41.65 37.375 Q 41.65 38.047 42.122 38.203 A 1.045 1.045 0 0 0 42.45 38.25 A 0.961 0.961 0 0 0 42.772 38.193 Q 43.518 37.929 44.32 36.451 A 13.878 13.878 0 0 0 44.775 35.525 Q 45.694 33.481 46.824 30.144 A 137.916 137.916 0 0 0 47.6 27.775 A 62.071 62.071 0 0 0 48.265 25.556 Q 49.2 22.185 49.2 20.35 A 6.775 6.775 0 0 0 48.94 18.47 A 7.156 7.156 0 0 0 47.625 15.975 A 11.145 11.145 0 0 0 47.059 15.316 Q 46.324 14.529 45.678 14.213 A 1.884 1.884 0 0 0 44.85 14 A 3.579 3.579 0 0 0 43.419 14.329 Q 41.562 15.14 39.25 17.95 Q 36 21.9 30.05 32.3 Q 33.05 23.85 34.475 15.625 A 167.523 167.523 0 0 0 35.078 11.917 Q 35.9 6.439 35.9 3.4 A 4.009 4.009 0 0 0 35.776 2.405 A 4.497 4.497 0 0 0 35.2 1.1 Q 34.5 0 33.85 0 Q 33.541 0 33.333 0.085 A 0.634 0.634 0 0 0 33 0.375 Q 32.847 0.662 32.811 1.374 Z M 21.633 4.349 A 2.825 2.825 0 0 0 20.3 4 A 9.28 9.28 0 0 0 18.699 4.142 Q 17.254 4.395 15.742 5.098 A 17.681 17.681 0 0 0 13.225 6.55 Q 9.5 9.1 6.65 12.825 Q 3.8 16.55 1.9 20.925 A 29.89 29.89 0 0 0 1.484 21.932 Q 0.787 23.711 0.418 25.362 A 16.308 16.308 0 0 0 0 28.925 A 7.916 7.916 0 0 0 0.97 32.791 A 9.378 9.378 0 0 0 2.9 35.2 A 12.171 12.171 0 0 0 3.105 35.383 A 9.461 9.461 0 0 0 9.5 37.85 Q 12 37.85 15.2 36.45 A 34.47 34.47 0 0 0 16.079 36.051 Q 17.363 35.446 18.452 34.796 A 19.428 19.428 0 0 0 20.5 33.4 A 18.22 18.22 0 0 0 21.002 32.992 Q 22.129 32.04 22.461 31.39 A 1.096 1.096 0 0 0 22.6 30.9 A 0.635 0.635 0 0 0 22.524 30.601 A 0.89 0.89 0 0 0 22.4 30.425 Q 22.2 30.2 21.85 30.2 Q 21.566 30.2 20.39 30.926 A 33.508 33.508 0 0 0 19.8 31.3 Q 18.1 32.4 15.375 33.525 Q 12.65 34.65 9.85 34.65 A 9.205 9.205 0 0 1 8.708 34.581 A 6.967 6.967 0 0 1 5.125 33.1 Q 3.802 32.034 3.388 30.213 A 8.188 8.188 0 0 1 3.2 28.4 A 11.526 11.526 0 0 1 3.321 26.769 Q 3.509 25.454 3.99 24.005 A 24.047 24.047 0 0 1 5.125 21.225 A 34.671 34.671 0 0 1 6.135 19.273 A 29.717 29.717 0 0 1 9.725 14.15 A 35.329 35.329 0 0 1 11.594 12.174 A 28.847 28.847 0 0 1 15.325 9.075 Q 18.25 7.05 20.2 7.05 Q 21.2 7.05 22.3 7.5 A 26.829 26.829 0 0 0 22.315 7.506 Q 23.18 7.859 23.53 7.931 A 0.755 0.755 0 0 0 23.675 7.95 Q 23.95 7.95 23.95 7.175 A 1.311 1.311 0 0 0 23.866 6.734 Q 23.632 6.082 22.75 5.2 A 5.97 5.97 0 0 0 22.456 4.924 Q 22.047 4.568 21.633 4.349 Z M 223.159 1.113 A 7.594 7.594 0 0 0 223.15 1.5 Q 222.855 6.094 221.677 12.238 A 167.035 167.035 0 0 1 220.2 19.1 A 12.518 12.518 0 0 0 219.888 17.957 Q 218.591 14 215.2 14 A 6.452 6.452 0 0 0 214.545 14.033 Q 213.259 14.165 211.973 14.811 A 10.888 10.888 0 0 0 210.1 16.025 Q 207.55 18.05 205.775 20.95 Q 204 23.85 202.875 27 A 25.579 25.579 0 0 0 202.344 28.654 Q 202.057 29.672 201.909 30.576 A 11.153 11.153 0 0 0 201.75 32.375 A 5.651 5.651 0 0 0 202.216 34.642 A 6.662 6.662 0 0 0 203.375 36.425 A 6.717 6.717 0 0 0 203.581 36.646 A 5.016 5.016 0 0 0 207.3 38.25 Q 209.6 38.25 212.1 36.6 A 19.782 19.782 0 0 0 213.778 35.359 A 23.125 23.125 0 0 0 216.75 32.4 Q 216.05 35.55 216.05 36.275 Q 216.05 37 216.6 37.625 Q 217.15 38.25 217.7 38.25 A 0.148 0.148 0 0 0 217.757 38.238 Q 218.483 37.94 220.536 30.249 A 248.074 248.074 0 0 0 221.175 27.8 A 489.012 489.012 0 0 0 221.678 25.819 Q 223.17 19.888 224.121 15.44 A 141.653 141.653 0 0 0 224.975 11.15 Q 225.889 6.113 226.061 4.244 A 7.961 7.961 0 0 0 226.1 3.55 A 5.234 5.234 0 0 0 226.094 3.285 A 4.26 4.26 0 0 0 225.375 1.075 Q 224.893 0.36 224.466 0.121 A 0.85 0.85 0 0 0 224.05 0 A 2.136 2.136 0 0 0 224.011 0 Q 223.724 0.006 223.545 0.089 A 0.482 0.482 0 0 0 223.3 0.325 A 0.703 0.703 0 0 0 223.299 0.328 Q 223.187 0.573 223.159 1.113 Z M 90.75 16.4 L 83.7 17.85 A 164.784 164.784 0 0 1 82.482 22.431 A 211.746 211.746 0 0 1 81.025 27.375 A 116.005 116.005 0 0 0 80.49 29.164 Q 79.706 31.87 79.513 33.159 A 4.853 4.853 0 0 0 79.45 33.85 A 1.943 1.943 0 0 0 79.517 34.384 Q 79.689 34.983 80.3 35.142 A 1.989 1.989 0 0 0 80.8 35.2 Q 83.2 35.2 85.7 34.175 A 160.609 160.609 0 0 1 86.289 33.935 Q 88.181 33.168 88.391 33.15 A 0.108 0.108 0 0 1 88.4 33.15 Q 89.1 33.15 89.1 33.75 Q 89.1 34.95 86.325 36.6 A 14.623 14.623 0 0 1 84.477 37.539 Q 83.476 37.956 82.549 38.128 A 6.959 6.959 0 0 1 81.275 38.25 Q 79.563 38.25 78.404 37.641 A 4.061 4.061 0 0 1 77.7 37.175 Q 76.4 36.1 76.4 34.7 A 8.321 8.321 0 0 1 76.464 33.727 Q 76.584 32.716 76.931 31.355 A 31.597 31.597 0 0 1 77.05 30.9 A 103.772 103.772 0 0 1 77.408 29.614 Q 77.994 27.556 78.875 24.725 A 223.54 223.54 0 0 0 79.43 22.917 Q 80.213 20.325 80.7 18.45 A 120.125 120.125 0 0 1 79.746 18.62 Q 77.842 18.95 77.375 18.95 Q 76.902 18.95 76.412 18.578 A 3.003 3.003 0 0 1 76.2 18.4 Q 75.6 17.85 75.6 17.4 A 0.557 0.557 0 0 1 75.88 16.994 Q 76.75 16.346 80.32 15.582 A 69.109 69.109 0 0 1 81.45 15.35 A 51.926 51.926 0 0 0 81.951 12.535 Q 82.3 10.176 82.3 8.35 Q 82.3 6.85 83.05 6.85 A 1.131 1.131 0 0 1 83.479 6.943 Q 83.828 7.086 84.236 7.449 A 5.558 5.558 0 0 1 84.475 7.675 A 3.056 3.056 0 0 1 85.006 8.371 A 2.376 2.376 0 0 1 85.3 9.525 A 5.14 5.14 0 0 1 85.269 10.026 Q 85.142 11.26 84.512 14.355 A 176.173 176.173 0 0 1 84.4 14.9 Q 87.842 14.408 89.302 14.4 A 8.714 8.714 0 0 1 89.35 14.4 A 9.838 9.838 0 0 1 90.167 14.431 Q 91.499 14.543 91.836 15.056 A 0.702 0.702 0 0 1 91.95 15.45 A 0.626 0.626 0 0 1 91.752 15.896 Q 91.542 16.111 91.108 16.28 A 4.367 4.367 0 0 1 90.75 16.4 Z M 178.4 18.85 L 178.3 16.15 Q 178.3 14.527 178.528 14.248 A 0.212 0.212 0 0 1 178.55 14.225 A 1.09 1.09 0 0 1 178.714 14.102 Q 178.818 14.039 178.922 14.015 A 0.569 0.569 0 0 1 179.05 14 A 1.079 1.079 0 0 1 179.608 14.167 Q 179.963 14.379 180.317 14.86 A 4.949 4.949 0 0 1 180.45 15.05 A 4.076 4.076 0 0 1 181.092 16.619 A 3.946 3.946 0 0 1 181.15 17.3 Q 181.15 20.5 180.6 23.7 A 37.575 37.575 0 0 1 182.138 20.79 A 27.563 27.563 0 0 1 183.8 18.275 Q 185.5 16 186.95 15.1 Q 188.4 14.2 189.55 14.2 A 8.218 8.218 0 0 1 190.242 14.227 Q 191.75 14.355 191.75 15.1 A 0.684 0.684 0 0 1 191.592 15.515 Q 191.287 15.916 190.393 16.316 A 8.674 8.674 0 0 1 190.2 16.4 Q 187.25 17.55 185.45 19.975 A 25.91 25.91 0 0 0 183.996 22.176 Q 183.336 23.287 182.682 24.591 A 50.947 50.947 0 0 0 181.9 26.225 A 74.845 74.845 0 0 0 180.704 28.978 Q 180.141 30.351 179.704 31.598 A 40.499 40.499 0 0 0 179.225 33.05 A 204.368 204.368 0 0 1 178.792 34.438 Q 178.252 36.148 177.924 37.049 A 20.709 20.709 0 0 1 177.85 37.25 Q 177.518 38.135 177.05 38.367 A 0.778 0.778 0 0 1 176.7 38.45 A 0.863 0.863 0 0 1 176.14 38.238 Q 176.009 38.129 175.889 37.966 A 2.302 2.302 0 0 1 175.75 37.75 A 3.26 3.26 0 0 1 175.47 37.121 A 2.453 2.453 0 0 1 175.35 36.375 Q 175.35 35.73 175.624 34.697 A 14.223 14.223 0 0 1 175.65 34.6 Q 176.613 31.438 177.233 28.901 A 61.436 61.436 0 0 0 177.725 26.725 Q 178.25 24.179 178.367 20.833 A 56.87 56.87 0 0 0 178.4 18.85 Z M 67.169 14.355 A 4.997 4.997 0 0 0 65.25 14 A 4.47 4.47 0 0 0 64.382 14.088 Q 62.784 14.404 60.928 15.856 A 19.2 19.2 0 0 0 59.3 17.3 Q 55.95 20.6 53.725 25.025 A 28.248 28.248 0 0 0 52.613 27.513 Q 51.5 30.388 51.5 32.65 A 4.056 4.056 0 0 0 51.64 33.71 Q 51.873 34.573 52.493 35.372 A 7.348 7.348 0 0 0 53.6 36.5 A 8.671 8.671 0 0 0 54.997 37.46 A 6.151 6.151 0 0 0 57.975 38.25 A 5.5 5.5 0 0 0 59.108 38.131 Q 60.057 37.931 61.023 37.4 A 10.557 10.557 0 0 0 62.625 36.3 Q 65 34.35 66.55 31.6 Q 66.55 35 66.8 36.625 A 5.455 5.455 0 0 0 66.867 36.983 Q 67.15 38.25 67.9 38.25 A 0.501 0.501 0 0 0 68.31 38.041 Q 68.381 37.95 68.437 37.818 A 1.803 1.803 0 0 0 68.525 37.55 A 3.963 3.963 0 0 0 68.527 37.544 Q 68.657 37.019 68.774 35.938 A 41.107 41.107 0 0 0 68.85 35.15 Q 68.953 33.981 69.234 32.269 A 85.572 85.572 0 0 1 69.525 30.6 A 30.205 30.205 0 0 0 69.802 28.785 A 34.973 34.973 0 0 0 70.05 24.55 Q 70.05 23.75 69.6 23.25 A 6.553 6.553 0 0 0 69.797 22.967 A 5.273 5.273 0 0 0 70.7 20.025 Q 70.7 18.3 69.275 16.15 Q 68.429 14.873 67.169 14.355 Z M 199.162 10.549 A 63.579 63.579 0 0 0 199.65 3.1 Q 199.65 2.05 198.775 1.025 A 9.19 9.19 0 0 0 198.644 0.874 Q 197.864 0 197.425 0 A 1.674 1.674 0 0 0 197.367 0.001 Q 197.152 0.008 197.022 0.073 A 0.335 0.335 0 0 0 196.85 0.25 A 0.626 0.626 0 0 0 196.835 0.293 Q 196.77 0.496 196.755 0.946 A 8.954 8.954 0 0 0 196.75 1.25 A 55.349 55.349 0 0 1 196.699 3.604 Q 196.472 8.926 195.25 15.625 Q 193.75 23.85 192.25 29.775 Q 191.008 34.682 190.795 35.902 A 2.437 2.437 0 0 0 190.75 36.25 A 1.131 1.131 0 0 0 190.752 36.311 Q 190.781 36.84 191.3 37.525 A 3.766 3.766 0 0 0 191.407 37.66 Q 191.69 38 191.96 38.144 A 0.824 0.824 0 0 0 192.35 38.25 A 0.387 0.387 0 0 0 192.615 38.078 Q 193.323 37.237 194.65 32.3 A 245.89 245.89 0 0 0 195.57 28.796 Q 198.239 18.311 199.162 10.549 Z M 157.835 18.067 A 18.242 18.242 0 0 0 154.85 22.825 A 21.524 21.524 0 0 0 153.945 25.281 A 17.037 17.037 0 0 0 153.2 30.175 A 15.919 15.919 0 0 0 153.223 31.035 Q 153.291 32.294 153.564 33.373 A 8.403 8.403 0 0 0 154.7 36 A 6.267 6.267 0 0 0 155.219 36.678 A 4.455 4.455 0 0 0 158.7 38.25 Q 162.172 38.25 165.077 35.863 A 15.893 15.893 0 0 0 167.6 33.2 A 21.878 21.878 0 0 0 168.182 32.401 A 17.476 17.476 0 0 0 171.45 22.25 A 12.257 12.257 0 0 0 171.405 21.189 A 9.769 9.769 0 0 0 169.775 16.475 A 7.047 7.047 0 0 0 169.54 16.148 Q 167.9 14 165.175 14 A 6.834 6.834 0 0 0 163.978 14.106 Q 162.663 14.34 161.358 15.087 A 12.254 12.254 0 0 0 159.375 16.525 A 16.702 16.702 0 0 0 157.835 18.067 Z M 215.4 16.95 A 4.562 4.562 0 0 0 213.523 17.383 Q 212.202 17.977 210.789 19.384 A 16.077 16.077 0 0 0 210.6 19.575 A 20.629 20.629 0 0 0 207.282 24.131 A 24.724 24.724 0 0 0 206.4 25.925 A 21.803 21.803 0 0 0 205.332 28.857 Q 204.878 30.476 204.778 31.972 A 12.484 12.484 0 0 0 204.75 32.8 A 2.418 2.418 0 0 0 205.544 34.61 A 3.333 3.333 0 0 0 205.7 34.75 Q 206.65 35.55 207.75 35.55 A 4.562 4.562 0 0 0 209.31 35.242 Q 211.16 34.566 213.6 32.4 A 20.207 20.207 0 0 0 216.617 29.045 A 15.245 15.245 0 0 0 218.85 24.45 A 18.896 18.896 0 0 0 218.724 22.198 Q 218.585 21.047 218.295 20.072 A 9.619 9.619 0 0 0 217.95 19.1 Q 217.464 17.938 216.758 17.404 A 2.192 2.192 0 0 0 215.4 16.95 Z M 163.85 33.075 Q 166.15 30.7 167.325 27.7 Q 168.225 25.403 168.436 23.517 A 10.057 10.057 0 0 0 168.5 22.4 A 11.451 11.451 0 0 0 168.372 20.643 Q 168.221 19.665 167.888 18.845 A 6.727 6.727 0 0 0 167.725 18.475 A 5.771 5.771 0 0 0 167.085 17.42 Q 166.559 16.741 165.878 16.365 A 3.555 3.555 0 0 0 165.65 16.25 Q 161.5 17.05 158.85 21.6 A 19.162 19.162 0 0 0 156.434 28.196 A 18.038 18.038 0 0 0 156.2 31.1 A 8.435 8.435 0 0 0 156.34 32.701 Q 156.798 35.061 158.75 35.75 A 7.668 7.668 0 0 0 162.512 34.25 A 10.554 10.554 0 0 0 163.85 33.075 Z M 68.05 20.975 A 67.975 67.975 0 0 0 68.05 21.055 Q 68.052 22.311 68.1 22.65 A 1.129 1.129 0 0 0 67.342 23.253 A 1.632 1.632 0 0 0 67.2 23.7 A 27.334 27.334 0 0 1 65.908 27.292 A 20.896 20.896 0 0 1 63.1 31.95 A 17.685 17.685 0 0 1 62.905 32.188 Q 61.444 33.938 60.012 34.704 A 4.659 4.659 0 0 1 57.8 35.3 Q 56.65 35.3 55.625 34.55 Q 54.6 33.8 54.6 32.7 Q 54.6 30.939 55.608 28.494 A 25.988 25.988 0 0 1 56.55 26.475 Q 58.5 22.7 61.175 19.825 A 18.665 18.665 0 0 1 62.049 18.944 Q 63.343 17.726 64.437 17.252 A 3.313 3.313 0 0 1 65.75 16.95 A 1.612 1.612 0 0 1 66.543 17.146 Q 66.876 17.329 67.135 17.686 A 3.114 3.114 0 0 1 67.475 18.3 Q 68.05 19.65 68.05 20.975 Z" vector-effect="non-scaling-stroke"/></g></svg>